HIERARCHY
ROOT hip
{
  OFFSET 0 0 0
  CHANNELS 6 Xposition Yposition Zposition Zrotation Yrotation Xrotation
  JOINT abdomen
  {
    OFFSET 0 20.6881 -0.73152
    CHANNELS 3 Zrotation Xrotation Yrotation
    JOINT chest
    {
      OFFSET 0 11.7043 -0.48768
      CHANNELS 3 Zrotation Xrotation Yrotation
      JOINT neck
      {
        OFFSET 0 22.1894 -2.19456
        CHANNELS 3 Zrotation Xrotation Yrotation
        JOINT head
        {
          OFFSET -0.24384 7.07133 1.2192
          CHANNELS 3 Zrotation Xrotation Yrotation
          JOINT leftEye
          {
            OFFSET 4.14528 8.04674 8.04672
            CHANNELS 3 Zrotation Xrotation Yrotation
            End Site
            {
              OFFSET 1 0 0
            }
          }
          JOINT rightEye
          {
            OFFSET -3.6576 8.04674 8.04672
            CHANNELS 3 Zrotation Xrotation Yrotation
            End Site
            {
              OFFSET 1 0 0
            }
          }
        }
      }
      JOINT rCollar
      {
        OFFSET -2.68224 19.2634 -4.8768
        CHANNELS 3 Zrotation Xrotation Yrotation
        JOINT rShldr
        {
          OFFSET -8.77824 -1.95073 1.46304
          CHANNELS 3 Zrotation Xrotation Yrotation
          JOINT rForeArm
          {
            OFFSET -28.1742 -1.7115 0.48768
            CHANNELS 3 Zrotation Xrotation Yrotation
            JOINT rHand
            {
              OFFSET -22.5879 0.773209 7.07136
              CHANNELS 3 Zrotation Xrotation Yrotation
              JOINT rThumb1
              {
                OFFSET -1.2192 -0.487915 3.41376
                CHANNELS 3 Zrotation Xrotation Yrotation
                JOINT rThumb2
                {
                  OFFSET -3.37035 -0.52449 3.41376
                  CHANNELS 3 Zrotation Xrotation Yrotation
                  End Site
                  {
                    OFFSET -1.78271 -1.18214 1.43049
                  }
                }
              }
              JOINT rIndex1
              {
                OFFSET -7.75947 0.938293 5.60832
                CHANNELS 3 Zrotation Xrotation Yrotation
                JOINT rIndex2
                {
                  OFFSET -2.54057 -0.884171 1.56538
                  CHANNELS 3 Zrotation Xrotation Yrotation
                  End Site
                  {
                    OFFSET -1.62519 -0.234802 1.16502
                  }
                }
              }
              JOINT rMid1
              {
                OFFSET -8.24714 1.18213 3.41376
                CHANNELS 3 Zrotation Xrotation Yrotation
                JOINT rMid2
                {
                  OFFSET -3.10165 -0.590103 1.0647
                  CHANNELS 3 Zrotation Xrotation Yrotation
                  End Site
                  {
                    OFFSET -2.48547 -0.328903 0.83742
                  }
                }
              }
              JOINT rRing1
              {
                OFFSET -8.82822 0.546677 1.51678
                CHANNELS 3 Zrotation Xrotation Yrotation
                JOINT rRing2
                {
                  OFFSET -2.60934 -0.819778 -0.0198488
                  CHANNELS 3 Zrotation Xrotation Yrotation
                  End Site
                  {
                    OFFSET -2.33842 -0.294052 0.168128
                  }
                }
              }
              JOINT rPinky1
              {
                OFFSET -8.27202 -0.0477905 -0.4584
                CHANNELS 3 Zrotation Xrotation Yrotation
                JOINT rPinky2
                {
                  OFFSET -1.82734 -0.647385 -0.700984
                  CHANNELS 3 Zrotation Xrotation Yrotation
                  End Site
                  {
                    OFFSET -1.69225 -0.51767 -0.607171
                  }
                }
              }
            }
          }
        }
      }
      JOINT lCollar
      {
        OFFSET 2.68224 19.2634 -4.8768
        CHANNELS 3 Zrotation Xrotation Yrotation
        JOINT lShldr
        {
          OFFSET 8.77824 -1.95073 1.46304
          CHANNELS 3 Zrotation Xrotation Yrotation
          JOINT lForeArm
          {
            OFFSET 28.1742 -1.7115 0.48768
            CHANNELS 3 Zrotation Xrotation Yrotation
            JOINT lHand
            {
              OFFSET 22.5879 0.773209 7.07136
              CHANNELS 3 Zrotation Xrotation Yrotation
              JOINT lThumb1
              {
                OFFSET 1.2192 -0.487915 3.41376
                CHANNELS 3 Zrotation Xrotation Yrotation
                JOINT lThumb2
                {
                  OFFSET 3.37035 -0.52449 3.41376
                  CHANNELS 3 Zrotation Xrotation Yrotation
                  End Site
                  {
                    OFFSET 1.78271 -1.18214 1.43049
                  }
                }
              }
              JOINT lIndex1
              {
                OFFSET 7.75947 0.938293 5.60832
                CHANNELS 3 Zrotation Xrotation Yrotation
                JOINT lIndex2
                {
                  OFFSET 2.54057 -0.884171 1.56538
                  CHANNELS 3 Zrotation Xrotation Yrotation
                  End Site
                  {
                    OFFSET 1.62519 -0.234802 1.16502
                  }
                }
              }
              JOINT lMid1
              {
                OFFSET 8.24714 1.18213 3.41376
                CHANNELS 3 Zrotation Xrotation Yrotation
                JOINT lMid2
                {
                  OFFSET 3.10165 -0.590103 1.0647
                  CHANNELS 3 Zrotation Xrotation Yrotation
                  End Site
                  {
                    OFFSET 2.48547 -0.328903 0.83742
                  }
                }
              }
              JOINT lRing1
              {
                OFFSET 8.82822 0.546677 1.51678
                CHANNELS 3 Zrotation Xrotation Yrotation
                JOINT lRing2
                {
                  OFFSET 2.60934 -0.819778 -0.0198488
                  CHANNELS 3 Zrotation Xrotation Yrotation
                  End Site
                  {
                    OFFSET 2.33842 -0.294052 0.168128
                  }
                }
              }
              JOINT lPinky1
              {
                OFFSET 8.27202 -0.0477905 -0.4584
                CHANNELS 3 Zrotation Xrotation Yrotation
                JOINT lPinky2
                {
                  OFFSET 1.82734 -0.647385 -0.700984
                  CHANNELS 3 Zrotation Xrotation Yrotation
                  End Site
                  {
                    OFFSET 1.69225 -0.51767 -0.607171
                  }
                }
              }
            }
          }
        }
      }
    }
  }
  JOINT rButtock
  {
    OFFSET -8.77824 4.35084 1.2192
    CHANNELS 3 Zrotation Xrotation Yrotation
    JOINT rThigh
    {
      OFFSET 0 -1.70687 -2.19456
      CHANNELS 3 Zrotation Xrotation Yrotation
      JOINT rShin
      {
        OFFSET 0 -36.8199 0.73152
        CHANNELS 3 Zrotation Xrotation Yrotation
        JOINT rFoot
        {
          OFFSET 0.73152 -45.1104 -5.12064
          CHANNELS 3 Zrotation Xrotation Yrotation
          End Site
          {
            OFFSET -1.1221 -3.69964 12.103
          }
        }
      }
    }
  }
  JOINT lButtock
  {
    OFFSET 8.77824 4.35084 1.2192
    CHANNELS 3 Zrotation Xrotation Yrotation
    JOINT lThigh
    {
      OFFSET 0 -1.70687 -2.19456
      CHANNELS 3 Zrotation Xrotation Yrotation
      JOINT lShin
      {
        OFFSET 0 -36.8199 0.73152
        CHANNELS 3 Zrotation Xrotation Yrotation
        JOINT lFoot
        {
          OFFSET -0.73152 -45.1104 -5.12064
          CHANNELS 3 Zrotation Xrotation Yrotation
          End Site
          {
            OFFSET 1.1221 -3.69964 12.103
          }
        }
      }
    }
  }
}
MOTION
Frames:	8
Frame Time:	0.00833333
4.50626 79.2284 112.856 191.017 -5.8375 -161.366 -9.04693 -18.5506 -7.99103 6.63887 13.1494 -2.57569 2.03182 12.9757 -11.31 10.962 -6.20636 -19.3656 -0.0 0.0 0.0 -0.0 0.0 0.0 -2.42443e-13 -2.3523e-13 -2.56705e-13 86.3044 13.332 -11.438 -15.9895 -8.67735 29.6504 -0.0309474 -5.01499 -0.706635 4.26105e-09 -3.35179e-09 8.06139e-10 7.36719e-09 -5.79912e-09 1.40401e-09 4.26105e-09 -3.35179e-09 8.06138e-10 7.73091 5.47488 0.417314 4.26105e-09 -3.35179e-09 8.06144e-10 2.90554 0.965183 0.102902 4.26106e-09 -3.35179e-09 8.06139e-10 10.2786 0.731801 0.0259123 4.26104e-09 -3.35179e-09 8.06137e-10 2.22167 -0.733487 -0.20892 -2.42493e-13 -2.3522e-13 -2.56911e-13 -63.2166 28.3743 2.42183 17.0351 -9.6872 -31.8856 0.00392811 -1.78858 0.251451 3.09734e-09 1.95708e-09 -8.45675e-10 5.35185e-09 3.38471e-09 -1.46647e-09 3.09734e-09 1.95707e-09 -8.45672e-10 -7.73091 5.47488 -0.417314 3.09734e-09 1.95707e-09 -8.45679e-10 -2.90554 0.965183 -0.102902 3.09733e-09 1.95707e-09 -8.45679e-10 -10.2786 0.731801 -0.0259123 3.09735e-09 1.95708e-09 -8.4568e-10 -2.22167 -0.733487 0.20892 -2.03217e-16 0.0 -3.88251e-19 -30.2375 -51.1194 -11.1584 -0.0777004 24.0635 0.484031 0.654495 -1.2228 -21.8646 2.03217e-16 0.0 3.88251e-19 12.5269 -27.7002 -15.8729 0.212715 34.8673 -0.926048 -1.35084 -23.0661 0.10335
4.91126 79.0682 112.458 191.222 -6.0294 -161.568 -9.07709 -18.5343 -8.039 6.76887 12.798 -2.5814 2.09919 13.1148 -11.3983 10.9435 -5.83413 -19.4792 -0.0 0.0 0.0 -0.0 0.0 0.0 -1.57945e-13 -1.91928e-13 -2.74928e-13 86.4349 13.4044 -12.0071 -15.9373 -8.629 29.5404 -0.0319282 -5.09328 -0.717725 2.63401e-09 -3.40102e-09 1.31713e-10 4.55695e-09 -5.88664e-09 2.32084e-10 2.63402e-09 -3.40102e-09 1.31713e-10 7.73091 5.47488 0.417314 2.63401e-09 -3.40102e-09 1.31719e-10 2.90554 0.965183 0.102902 2.63402e-09 -3.40102e-09 1.31715e-10 10.2786 0.731801 0.0259123 2.634e-09 -3.40102e-09 1.31714e-10 2.22167 -0.733487 -0.20892 -1.57959e-13 -1.91926e-13 -2.75065e-13 -63.1594 28.8436 3.01411 17.2668 -9.9218 -32.3897 0.0041277 -1.83165 0.257511 2.28708e-09 1.37128e-09 -8.54138e-10 3.95282e-09 2.37278e-09 -1.48037e-09 2.28707e-09 1.37128e-09 -8.5413e-10 -7.73091 5.47488 -0.417314 2.28708e-09 1.37128e-09 -8.54139e-10 -2.90554 0.965183 -0.102902 2.28707e-09 1.37128e-09 -8.54138e-10 -10.2786 0.731801 -0.0259123 2.28708e-09 1.37128e-09 -8.5414e-10 -2.22167 -0.733487 0.20892 -2.03217e-16 0.0 -3.88251e-19 -30.6943 -50.7353 -10.8083 -0.0724999 23.0801 0.432426 0.993602 -0.491976 -22.5138 2.03217e-16 0.0 3.88251e-19 13.065 -27.4359 -16.0502 0.216776 35.1424 -0.937619 -1.45411 -23.5069 -0.0438972
5.35995 78.8981 112.085 191.597 -6.1737 -161.718 -9.12058 -18.5114 -8.09212 6.8918 12.4439 -2.58688 2.17487 13.2556 -11.4799 10.913 -5.47662 -19.5819 -0.0 0.0 0.0 -0.0 0.0 0.0 -5.63858e-14 -1.30586e-13 -2.69045e-13 86.573 13.473 -12.5789 -15.8867 -8.58226 29.4337 -0.0328329 -5.16398 -0.727743 7.17488e-10 -3.17475e-09 -5.5704e-10 1.2461e-09 -5.49731e-09 -9.65164e-10 7.17492e-10 -3.17475e-09 -5.5704e-10 7.73091 5.47488 0.417314 7.17485e-10 -3.17475e-09 -5.57034e-10 2.90554 0.965183 0.102902 7.17495e-10 -3.17475e-09 -5.57037e-10 10.2786 0.731801 0.0259123 7.17481e-10 -3.17474e-09 -5.57036e-10 2.22167 -0.733487 -0.20892 -5.63684e-14 -1.30593e-13 -2.69118e-13 -63.0947 29.3175 3.61947 17.4975 -10.1579 -32.8988 0.00436937 -1.88427 0.264914 1.22393e-09 6.05679e-10 -8.22797e-10 2.11666e-09 1.04977e-09 -1.4253e-09 1.22392e-09 6.05675e-10 -8.22784e-10 -7.73091 5.47488 -0.417314 1.22393e-09 6.05673e-10 -8.22796e-10 -2.90554 0.965183 -0.102902 1.22392e-09 6.05674e-10 -8.22793e-10 -10.2786 0.731801 -0.0259123 1.22393e-09 6.05676e-10 -8.22795e-10 -2.22167 -0.733487 0.20892 -2.03217e-16 0.0 -3.88251e-19 -31.1403 -50.3547 -10.4844 -0.0684899 22.1378 0.381624 1.33041 0.197594 -23.1601 2.03217e-16 0.0 3.88251e-19 13.6088 -27.172 -16.2049 0.220647 35.4294 -0.951121 -1.54689 -23.9531 -0.160618
5.81235 78.7265 111.701 191.95 -6.2618 -161.858 -9.17634 -18.4943 -8.15799 6.9902 12.2 -2.59674 2.22585 13.3618 -11.5379 10.9518 -5.17138 -19.6438 -0.0 0.0 0.0 -0.0 0.0 0.0 1.54642e-14 -7.63277e-14 -2.33125e-13 86.7172 13.4645 -13.0557 -15.8359 -8.53556 29.3268 -0.0329104 -5.17124 -0.72877 -7.03782e-10 -2.70831e-09 -9.43174e-10 -1.21003e-09 -4.69123e-09 -1.63698e-09 -7.03777e-10 -2.70831e-09 -9.43174e-10 7.73091 5.47488 0.417314 -7.03784e-10 -2.70831e-09 -9.43168e-10 2.90554 0.965183 0.102902 -7.03776e-10 -2.70831e-09 -9.4317e-10 10.2786 0.731801 0.0259123 -7.03788e-10 -2.70831e-09 -9.43168e-10 2.22167 -0.733487 -0.20892 1.54976e-14 -7.63391e-14 -2.33174e-13 -62.9505 29.7715 4.10373 17.7032 -10.371 -33.3576 0.00467979 -1.9529 0.27457 3.48145e-10 -4.13408e-11 -7.64176e-10 6.03704e-10 -6.877e-11 -1.32336e-09 3.48141e-10 -4.1342e-11 -7.6416e-10 -7.73091 5.47488 -0.417314 3.48147e-10 -4.13437e-11 -7.64173e-10 -2.90554 0.965183 -0.102902 3.48138e-10 -4.13435e-11 -7.6417e-10 -10.2786 0.731801 -0.0259123 3.48143e-10 -4.13428e-11 -7.64173e-10 -2.22167 -0.733487 0.20892 -2.03217e-16 0.0 -3.88251e-19 -31.6008 -49.978 -10.2044 -0.0659259 21.2417 0.333012 1.6165 0.730908 -23.757 2.03217e-16 0.0 3.88251e-19 14.1656 -26.9229 -16.3299 0.224176 35.7419 -0.96856 -1.62275 -24.4037 -0.2256
6.23622 78.5541 111.287 192.162 -6.4155 -162.064 -9.23817 -18.4713 -8.23426 7.05488 12.0996 -2.61075 2.22805 13.4214 -11.5615 11.1086 -4.93286 -19.6423 -0.0 0.0 0.0 -0.0 0.0 0.0 3.80017e-14 -2.87581e-14 -1.42757e-13 86.8698 13.3439 -13.4001 -15.7858 -8.48962 29.2217 -0.0316827 -5.07851 -0.715627 -1.37867e-09 -1.80911e-09 -8.49131e-10 -2.37828e-09 -3.13444e-09 -1.47522e-09 -1.37867e-09 -1.80911e-09 -8.49133e-10 7.73091 5.47488 0.417314 -1.37867e-09 -1.80911e-09 -8.49125e-10 2.90554 0.965183 0.102902 -1.37867e-09 -1.80911e-09 -8.49127e-10 10.2786 0.731801 0.0259123 -1.37868e-09 -1.80911e-09 -8.49124e-10 2.22167 -0.733487 -0.20892 3.80294e-14 -2.87653e-14 -1.42845e-13 -62.694 30.2014 4.41171 17.8768 -10.554 -33.7462 0.00507195 -2.02651 0.284929 -2.80869e-10 -5.24732e-10 -6.59552e-10 -4.83819e-10 -9.05327e-10 -1.14232e-09 -2.80872e-10 -5.24731e-10 -6.59537e-10 -7.73091 5.47488 -0.417314 -2.80867e-10 -5.24733e-10 -6.59548e-10 -2.90554 0.965183 -0.102902 -2.80875e-10 -5.24733e-10 -6.59546e-10 -10.2786 0.731801 -0.0259123 -2.80871e-10 -5.24733e-10 -6.59549e-10 -2.22167 -0.733487 0.20892 -2.03217e-16 0.0 -3.88251e-19 -32.0768 -49.5894 -9.96065 -0.0644107 20.3767 0.285528 1.82305 1.05449 -24.2871 2.03217e-16 0.0 3.88251e-19 14.7394 -26.7087 -16.4147 0.227862 36.1163 -0.991488 -1.67433 -24.8741 -0.219191
6.66303 78.3737 110.884 192.416 -6.6323 -162.26 -9.30855 -18.4409 -8.31831 7.09672 12.0815 -2.6269 2.20391 13.4547 -11.5615 11.3299 -4.73917 -19.598 -0.0 0.0 0.0 -0.0 0.0 0.0 3.85479e-14 2.31576e-14 -8.71236e-15 87.0287 13.1563 -13.6676 -15.7368 -8.44492 29.1191 -0.0297273 -4.9228 -0.693571 -1.73967e-09 -5.25644e-10 -4.7496e-10 -3.00542e-09 -9.11549e-10 -8.27392e-10 -1.73966e-09 -5.25644e-10 -4.74967e-10 7.73091 5.47488 0.417314 -1.73967e-09 -5.25646e-10 -4.74955e-10 2.90554 0.965183 0.102902 -1.73966e-09 -5.25644e-10 -4.74959e-10 10.2786 0.731801 0.0259123 -1.73967e-09 -5.25642e-10 -4.74955e-10 2.22167 -0.733487 -0.20892 3.85551e-14 2.31594e-14 -8.88008e-15 -62.3633 30.6211 4.61915 18.0327 -10.7211 -34.0956 0.00554289 -2.10591 0.296106 -8.78587e-10 -9.92127e-10 -5.09599e-10 -1.51791e-09 -1.71487e-09 -8.83098e-10 -8.78589e-10 -9.92125e-10 -5.09587e-10 -7.73091 5.47488 -0.417314 -8.78585e-10 -9.92126e-10 -5.09595e-10 -2.90554 0.965183 -0.102902 -8.78592e-10 -9.92126e-10 -5.09595e-10 -10.2786 0.731801 -0.0259123 -8.78588e-10 -9.92127e-10 -5.09599e-10 -2.22167 -0.733487 0.20892 -2.03217e-16 0.0 -3.88251e-19 -32.5549 -49.1945 -9.74662 -0.0636976 19.5456 0.23873 1.97278 1.2407 -24.7748 2.03217e-16 0.0 3.88251e-19 15.3246 -26.5162 -16.4663 0.231855 36.5346 -1.01867 -1.70445 -25.3599 -0.156353
7.10835 78.1837 110.473 192.69 -6.8192 -162.461 -9.39963 -18.4305 -8.41741 7.12837 12.1166 -2.64706 2.19005 13.4733 -11.5542 11.5438 -4.57331 -19.5454 -0.0 0.0 0.0 -0.0 0.0 0.0 4.07189e-14 7.02529e-14 1.22159e-13 87.1845 12.9499 -13.8997 -15.6868 -8.39947 29.0144 -0.0277954 -4.75858 -0.670326 -2.02743e-09 7.45106e-10 -7.01319e-11 -3.50594e-09 1.2895e-09 -1.2617e-10 -2.02743e-09 7.45104e-10 -7.01419e-11 7.73091 5.47488 0.417314 -2.02743e-09 7.45102e-10 -7.01278e-11 2.90554 0.965183 0.102902 -2.02742e-09 7.45105e-10 -7.01324e-11 10.2786 0.731801 0.0259123 -2.02743e-09 7.45106e-10 -7.01283e-11 2.22167 -0.733487 -0.20892 4.07004e-14 7.02634e-14 1.21909e-13 -61.9898 31.0341 4.78678 18.18 -10.8813 -34.4261 0.00613352 -2.21531 0.311504 -1.41704e-09 -1.43415e-09 -3.55939e-10 -2.44959e-09 -2.48058e-09 -6.17522e-10 -1.41704e-09 -1.43414e-09 -3.5593e-10 -7.73091 5.47488 -0.417314 -1.41704e-09 -1.43415e-09 -3.55936e-10 -2.90554 0.965183 -0.102902 -1.41704e-09 -1.43415e-09 -3.55937e-10 -10.2786 0.731801 -0.0259123 -1.41704e-09 -1.43415e-09 -3.55941e-10 -2.22167 -0.733487 0.20892 -2.03217e-16 0.0 -3.88251e-19 -33.0376 -48.8257 -9.57978 -0.0640021 18.7804 0.194848 2.0922 1.36439 -25.2352 2.03217e-16 0.0 3.88251e-19 15.915 -26.31 -16.504 0.235378 36.9279 -1.04784 -1.72226 -25.8296 -0.067914
7.58273 77.991 110.053 192.94 -6.8614 -162.668 -9.5238 -18.4674 -8.53891 7.16246 12.1757 -2.67311 2.22314 13.4887 -11.5559 11.6791 -4.41845 -19.5192 -0.0 0.0 0.0 -0.0 0.0 0.0 6.81308e-14 1.03361e-13 2.03009e-13 87.3281 12.7722 -14.1378 -15.6336 -8.35126 28.903 -0.0264816 -4.6403 -0.653595 -2.48264e-09 1.60614e-09 1.15887e-10 -4.29436e-09 2.78075e-09 1.95754e-10 -2.48264e-09 1.60614e-09 1.15874e-10 7.73091 5.47488 0.417314 -2.48264e-09 1.60614e-09 1.1589e-10 2.90554 0.965183 0.102902 -2.48263e-09 1.60614e-09 1.15885e-10 10.2786 0.731801 0.0259123 -2.48264e-09 1.60614e-09 1.1589e-10 2.22167 -0.733487 -0.20892 6.80908e-14 1.03375e-13 2.02711e-13 -61.607 31.4432 4.97644 18.3272 -11.0429 -34.7585 0.0069458 -2.37891 0.334528 -1.86826e-09 -1.84142e-09 -2.40192e-10 -3.22988e-09 -3.18566e-09 -4.17414e-10 -1.86826e-09 -1.84141e-09 -2.40186e-10 -7.73091 5.47488 -0.417314 -1.86825e-09 -1.84141e-09 -2.40189e-10 -2.90554 0.965183 -0.102902 -1.86826e-09 -1.84141e-09 -2.40192e-10 -10.2786 0.731801 -0.0259123 -1.86825e-09 -1.84141e-09 -2.40196e-10 -2.22167 -0.733487 0.20892 -2.03217e-16 0.0 -3.88251e-19 -33.5264 -48.5158 -9.47663 -0.0653249 18.1131 0.156045 2.21067 1.49915 -25.6836 2.03217e-16 0.0 3.88251e-19 16.5045 -26.0546 -16.5471 0.237403 37.2275 -1.07656 -1.73827 -26.2518 0.014736
